<svg width="302" height="286" viewBox="0 0 302 286" fill="none" xmlns="http://www.w3.org/2000/svg">
<path d="M148.123 205.268C134.25 205.171 120.367 205.994 106.6 207.737C117.31 197.149 128.139 186.682 138.87 176.116C106.24 154.584 73.5367 133.178 40.9131 111.639C70.702 82.4723 100.498 53.313 130.329 24.1753C151.122 57.2307 171.78 90.3765 192.558 123.446C203.381 112.944 214.105 102.356 224.913 91.854C220.298 124.862 219.661 158.919 227.44 191.512C230.589 204.155 235.077 216.608 242.068 227.661C214.022 210.485 180.471 205.646 148.123 205.268Z" fill="#00BAF4"/>
<path d="M2.92581 97.0217C3.51447 96.4504 4.1422 96.0371 4.80901 95.7819C5.47631 95.4935 6.12605 95.2712 6.75823 95.1149C7.40722 94.9423 8.01466 94.7773 8.58056 94.6201C9.13012 94.446 9.59833 94.1712 9.98516 93.7958C10.2716 93.4851 10.5756 93.1085 10.8971 92.6658C11.1682 92.272 11.4571 91.7957 11.7638 91.2367C12.071 90.6446 12.3634 89.9363 12.6409 89.1117C12.6082 90.1886 12.5948 91.0834 12.6007 91.7962C12.6071 92.4759 12.6321 93.0232 12.6756 93.4382C12.7181 93.9195 12.7624 94.2848 12.8084 94.5341C12.887 94.8171 13.005 95.2415 13.1623 95.8074C13.3037 96.3233 13.4922 97.0223 13.7276 97.9043C13.9467 98.7694 14.2531 99.8928 14.6468 101.274C13.5205 100.114 12.5295 99.3283 11.6737 98.9177C10.8348 98.4908 10.1176 98.2398 9.52201 98.1646C8.82702 98.0879 8.22873 98.1949 7.72713 98.4858C7.30815 98.7944 7.00343 99.2208 6.81296 99.7649C6.60618 100.292 6.48101 100.904 6.43746 101.599C6.41072 102.278 6.45769 103.017 6.57835 103.814C6.69952 104.578 6.87039 105.343 7.09098 106.109C7.32839 106.858 7.616 107.575 7.95383 108.26C8.27533 108.928 8.62305 109.505 8.997 109.991C9.32197 110.427 9.75428 110.889 10.2939 111.378C10.8173 111.85 11.399 112.298 12.039 112.722C12.6628 113.129 13.312 113.495 13.9867 113.82C14.6614 114.145 15.3292 114.379 15.99 114.521C16.6514 114.63 17.2811 114.64 17.8791 114.549C18.4608 114.442 18.9706 114.16 19.4084 113.702C19.8803 113.179 20.2295 112.546 20.4561 111.803C20.6644 111.177 20.7668 110.424 20.7634 109.546C20.7436 108.65 20.4773 107.619 19.9644 106.451L24.3593 103.508C24.556 105.865 24.4598 107.869 24.0704 109.52C23.6979 111.156 23.2385 112.5 22.6924 113.552C22.0444 114.769 21.2917 115.777 20.4344 116.577C19.2606 117.487 17.9581 118.131 16.5271 118.507C15.096 118.883 13.685 119.028 12.2941 118.941C10.9036 118.821 9.59077 118.494 8.35564 117.962C7.1205 117.43 6.11192 116.71 5.3299 115.804C4.80856 115.199 4.28153 114.42 3.74882 113.468C3.19979 112.498 2.70171 111.447 2.25458 110.313C1.82427 109.163 1.47756 107.964 1.21445 106.717C0.951335 105.47 0.820295 104.258 0.821327 103.081C0.806036 101.888 0.963624 100.771 1.29409 99.7321C1.62505 98.6597 2.16896 97.7562 2.92581 97.0217Z" fill="white"/>
<path d="M30.3336 107.998C30.2569 107.583 30.1629 107.217 30.0516 106.9C29.9404 106.583 29.8449 106.317 29.7653 106.1C29.653 105.85 29.5402 105.633 29.4269 105.449C29.3458 105.331 29.0686 105.029 28.5952 104.541C28.1218 104.053 27.5092 103.456 26.7574 102.748C26.0223 102.025 25.1891 101.217 24.2577 100.324C23.3431 99.4155 22.3954 98.5063 21.4145 97.5966C20.4505 96.6706 19.5025 95.778 18.5706 94.9187C17.6555 94.0431 16.8302 93.2601 16.0947 92.5695C15.3428 91.8621 14.7216 91.2893 14.2309 90.851C13.7402 90.4127 13.4538 90.1681 13.3717 90.1171C13.2401 90.0489 13.0833 90.0051 12.9013 89.9858C12.5372 89.9472 12.0636 90.0313 11.4804 90.238C12.1259 89.1869 12.6105 88.3737 12.934 87.7984C13.1378 87.47 13.308 87.1742 13.4445 86.911C13.5643 86.6642 13.684 86.4174 13.8037 86.1705C13.8898 85.9564 13.9845 85.7174 14.0879 85.4538C14.175 85.1733 14.237 84.9008 14.2742 84.6361C14.6634 85.2055 15.0532 85.7417 15.4435 86.2448C15.8337 86.7479 16.1998 87.2092 16.5416 87.6286C16.9323 88.0986 17.3236 88.5354 17.7153 88.939C18.4311 89.8448 19.2539 90.7935 20.1838 91.7854C21.1142 92.744 22.0694 93.7114 23.0492 94.6874C24.0291 95.6634 25.0013 96.5978 25.9659 97.4907C26.9304 98.3836 27.8134 99.1924 28.6147 99.9171C29.4165 100.609 30.1038 101.199 30.6766 101.688C31.2499 102.144 31.6268 102.432 31.8073 102.55C32.1195 102.737 32.4234 102.916 32.7192 103.086C32.9824 103.223 33.2621 103.36 33.5584 103.497C33.871 103.65 34.1515 103.737 34.3998 103.758L31.9526 106.133C31.734 106.345 31.5319 106.557 31.3464 106.77C31.1777 106.966 31.0006 107.171 30.8151 107.384C30.6296 107.596 30.4691 107.801 30.3336 107.998Z" fill="white"/>
<path d="M23.8247 91.0443L28.5157 86.5896C29.2423 87.8767 29.8893 88.9471 30.4566 89.8009C31.0408 90.6384 31.5527 91.3173 31.9925 91.8377C32.4639 92.458 32.9041 92.9453 33.3131 93.2995C33.7064 93.6037 34.1578 93.9005 34.6672 94.1899C35.0946 94.4284 35.6214 94.6683 36.2476 94.9097C36.8739 95.1511 37.5674 95.3272 38.3281 95.4381C38.061 95.5667 37.7934 95.7284 37.5253 95.9233C37.2572 96.1182 37.0141 96.3051 36.7959 96.4842C36.5441 96.6959 36.3087 96.9244 36.0895 97.1698C35.8704 97.4151 35.6342 97.6933 35.3809 98.0045C35.1781 98.2666 34.933 98.5862 34.6455 98.9631C34.3581 99.34 34.0702 99.7501 33.7818 100.193C33.2996 99.1916 32.8564 98.3479 32.4523 97.6623C32.065 96.9604 31.7254 96.3918 31.4336 95.9565C31.0765 95.4539 30.7757 95.0599 30.5314 94.7744C30.2049 94.4381 29.8377 94.0596 29.4296 93.6392C29.0052 93.2019 28.5971 92.7814 28.2054 92.3778C27.8136 91.9741 27.4624 91.6291 27.1518 91.3427C26.8248 91.0394 26.5953 90.8702 26.4632 90.8351L25.9661 90.8277C25.7836 90.8415 25.518 90.8707 25.1692 90.9152C24.821 90.9266 24.3728 90.9696 23.8247 91.0443ZM21.8453 85.4207C22.019 84.8929 22.3232 84.4997 22.758 84.241C23.2096 83.966 23.6506 83.8482 24.081 83.8878C24.5113 83.9274 24.8479 84.1396 25.0908 84.5245C25.3505 84.893 25.3834 85.4653 25.1894 86.2414C24.9792 87.0007 24.6482 87.5179 24.1966 87.7929C23.745 88.0679 23.3129 88.1443 22.9003 88.0221C22.4878 87.8999 22.1606 87.6133 21.9187 87.1621C21.6605 86.6942 21.6361 86.1137 21.8453 85.4207Z" fill="white"/>
<path d="M46.3609 73.6797C46.1264 73.8419 45.8497 74.0615 45.5306 74.3385C45.2283 74.5992 44.9427 74.8601 44.6736 75.1213C44.3708 75.4151 44.0594 75.7337 43.7394 76.0769C43.4025 76.4365 43.0656 76.7961 42.7288 77.1557C42.4423 77.4664 42.122 77.8262 41.7679 78.2353C41.4142 78.6112 41.077 78.9874 40.7565 79.3638C40.8257 79.166 40.8537 78.9592 40.8404 78.7435C40.8438 78.5115 40.8305 78.2959 40.8003 78.0965C40.7538 77.8803 40.6908 77.6639 40.6111 77.4473C40.4504 77.1134 40.1482 76.8188 39.7045 76.5635C39.2444 76.2915 38.733 76.1346 38.17 76.0931C37.6239 76.0352 37.0675 76.118 36.5006 76.3416C35.9342 76.532 35.4645 76.9062 35.0915 77.4641C34.7012 78.0715 34.4185 78.6889 34.2434 79.3161C34.085 79.927 34.0754 80.5732 34.2143 81.2549C34.3538 81.9034 34.6585 82.5875 35.1284 83.3073C35.5988 83.9939 36.2591 84.7247 37.1094 85.4999C38.1724 86.4605 39.1323 87.113 39.989 87.4573C40.8457 87.8017 41.6144 87.9375 42.2951 87.8648C42.9757 87.7921 43.5757 87.569 44.0951 87.1956C44.615 86.789 45.0775 86.3401 45.4827 85.8489C45.737 85.4715 45.8925 85.0429 45.9494 84.5631C45.9885 84.1659 45.9292 83.7009 45.7714 83.1681C45.6136 82.6354 45.2244 82.066 44.6036 81.4601L47.559 78.3468C48.1689 79.6819 48.5072 80.8886 48.5739 81.967C48.6243 83.0285 48.5692 83.9476 48.4084 84.7242C48.2125 85.6329 47.9023 86.4238 47.4778 87.097C46.9025 87.884 46.3376 88.5302 45.7831 89.0358C45.2122 89.5245 44.6429 89.9137 44.075 90.2036C43.5071 90.4934 42.9402 90.717 42.3743 90.8743C41.8084 91.0315 41.2431 91.1557 40.6782 91.2467C40.3126 91.3075 39.8239 91.2919 39.212 91.1999C38.6001 91.1079 37.9397 90.9322 37.2309 90.673C36.5058 90.397 35.7737 90.0296 35.0347 89.5711C34.2957 89.1125 33.6329 88.5473 33.0462 87.8756C32.4433 87.187 31.958 86.3841 31.5905 85.467C31.223 84.5499 31.0398 83.503 31.0408 82.3262C31.0508 80.5529 31.4298 79.0419 32.1777 77.7935C32.9262 76.5118 33.8198 75.4976 34.8586 74.7507C35.8811 73.987 36.9414 73.4642 38.0396 73.1823C39.1377 72.9003 40.0583 72.8561 40.8012 73.0495C41.5442 73.243 42.1054 73.4005 42.4848 73.5222C42.8647 73.6108 43.1535 73.6897 43.3514 73.759C43.5498 73.7951 43.7068 73.8223 43.8226 73.8406C43.9388 73.8258 44.1048 73.8117 44.3204 73.7983C44.4861 73.8008 44.6768 73.7954 44.8925 73.782C45.075 73.7682 45.2907 73.7548 45.5395 73.742C45.7883 73.7291 46.0621 73.7084 46.3609 73.6797Z" fill="white"/>
<path d="M36.7688 65.0582C37.0355 64.9628 37.3112 64.8094 37.5962 64.5982C37.8979 64.3707 38.1665 64.1427 38.402 63.9141C38.6879 63.6367 38.9741 63.3426 39.2605 63.032C39.5469 62.7213 39.8843 62.3286 40.2726 61.8537C40.5932 61.4773 40.9896 61.0109 41.4621 60.4544C41.9345 59.8979 42.4494 59.2675 43.0069 58.5631C42.8857 58.9094 42.8063 59.2314 42.7687 59.5292C42.7311 59.827 42.7187 60.1003 42.7316 60.3491C42.7439 60.631 42.7815 60.8885 42.8443 61.1215C42.9225 61.4376 43.1055 61.9458 43.3934 62.6463C43.6817 63.3136 44.0188 64.0479 44.4046 64.8493C44.8072 65.6343 45.2348 66.4114 45.6874 67.1806C46.1568 67.9335 46.5953 68.5368 47.0029 68.9904C47.3452 69.3767 47.7364 69.8135 48.1767 70.3008C48.5516 70.7207 49.0163 71.2332 49.5708 71.8382C50.1253 72.4432 50.7614 73.1323 51.4791 73.9054C51.8413 71.8556 52.0973 70.2517 52.2472 69.0937C52.3808 67.9189 52.4602 67.0416 52.4855 66.4619C52.5285 65.7995 52.5184 65.3684 52.4551 65.1686C52.3404 65.084 52.1922 65.0155 52.0107 64.9631C51.8286 64.9438 51.5966 64.9403 51.3147 64.9526C51.0327 64.965 50.6588 65.034 50.1928 65.1596C50.6791 64.7857 51.0901 64.452 51.426 64.1587C51.7787 63.8491 52.081 63.5884 52.3327 63.3767C52.6182 63.1324 52.8536 62.9038 53.0391 62.6911C53.2578 62.4789 53.5187 62.2094 53.822 61.8824C54.3607 61.3269 55.1939 60.4692 56.3218 59.3093C55.7662 60.9916 55.3645 62.3613 55.1167 63.4184C54.9752 64.0129 54.8594 64.5499 54.7694 65.0292C54.6956 65.5253 54.6217 66.038 54.5475 66.5673C54.4742 67.0303 54.3916 67.5677 54.2996 68.1796C54.2244 68.7752 54.1655 69.3876 54.1229 70.0168C55.642 70.4042 56.9222 70.6968 57.9634 70.8947C59.0215 71.0763 59.8896 71.2136 60.5677 71.3066C61.3617 71.4179 62.0238 71.4775 62.554 71.4855C63.068 71.4766 63.6987 71.4197 64.4461 71.3149C65.0936 71.2417 65.8994 71.1129 66.8635 70.9284C67.8281 70.7108 68.9759 70.4296 70.3071 70.0849C69.7882 70.4252 69.3106 70.7744 68.8743 71.1325C68.4543 71.5074 68.1095 71.8421 67.8399 72.1364C67.503 72.496 67.2161 72.8398 66.9792 73.1677C66.7417 73.5288 66.4869 73.9394 66.2149 74.3994C65.9769 74.7936 65.7046 75.2702 65.3979 75.8291C65.1243 76.3886 64.8495 77.0309 64.5735 77.7561C64.6645 77.2104 64.6796 76.7549 64.6188 76.3893C64.5911 76.0243 64.5456 75.7418 64.4823 75.542C64.3863 75.3085 64.2728 75.141 64.1417 75.0396C63.8944 74.9531 63.3664 74.796 62.5576 74.5684C61.8473 74.4086 60.8066 74.1776 59.4354 73.8753C58.0642 73.573 56.1638 73.1965 53.734 72.7458C53.6999 72.8116 53.6648 72.9436 53.6286 73.142C53.6093 73.324 53.5722 73.5887 53.5173 73.9359C53.4461 74.2663 53.3729 74.7293 53.2976 75.3249L58.2636 79.0788C58.1775 79.293 58.0665 79.5151 57.9304 79.7451C57.8112 79.9588 57.6922 80.1559 57.5735 80.3364C57.4375 80.5664 57.2851 80.7796 57.1164 80.976C56.9477 81.1724 56.7617 81.4182 56.5584 81.7135C56.3724 81.9593 56.1525 82.2544 55.8988 82.5987C55.6613 82.9598 55.39 83.3701 55.0848 83.8296C55.1565 83.466 55.1617 83.118 55.1004 82.7856C55.0554 82.47 54.9933 82.1873 54.9142 81.9375C54.8187 81.6709 54.7067 81.404 54.5781 81.1369C54.4485 80.9361 54.0577 80.4661 53.4058 79.7271C52.7707 78.9717 51.9966 78.09 51.0835 77.0818C50.1541 76.0569 49.151 74.9728 48.0741 73.8296C47.0141 72.6701 46.0026 71.5942 45.0395 70.6019C44.0601 69.5927 43.2029 68.7263 42.4679 68.0026C41.7166 67.2621 41.2095 66.807 40.9469 66.6373C40.6016 66.4498 40.2232 66.2618 39.8117 66.0734C39.4496 65.9022 39.0128 65.7382 38.5014 65.5814C37.9904 65.3914 37.4129 65.217 36.7688 65.0582Z" fill="white"/>
<path d="M56.1865 46.752C56.8404 46.2479 57.3856 45.8169 57.8218 45.4587C58.2418 45.0838 58.5777 44.7905 58.8295 44.5788C59.1317 44.3181 59.367 44.1062 59.5351 43.9429C59.8211 43.6654 60.1409 43.3387 60.4946 42.9628C60.7978 42.6358 61.1433 42.2515 61.5312 41.8098C61.9195 41.3349 62.317 40.8022 62.7236 40.2116C62.733 40.6924 62.7762 41.124 62.8534 41.5064C62.9142 41.8719 62.9924 42.188 63.0878 42.4546C63.1828 42.7544 63.2782 43.021 63.3742 43.2545C63.5191 43.5384 63.7699 43.9483 64.1265 44.484C64.4179 44.9524 64.8559 45.5888 65.4405 46.3932C66.042 47.1812 66.8304 48.2123 67.8058 49.4866C68.394 48.9484 68.8983 48.4753 69.3188 48.0672C69.7229 47.6423 70.068 47.2911 70.3539 47.0136L71.1864 46.2057C71.4056 45.9603 71.6584 45.6823 71.9448 45.3717C72.433 44.8652 73.1493 44.072 74.0936 42.9922C73.4269 42.1369 72.8242 41.4318 72.2855 40.8768C71.7473 40.2886 71.2737 39.8174 70.8647 39.4632C70.4066 39.0586 69.9971 38.7375 69.636 38.5001C69.4223 38.3809 69.1507 38.2525 68.8213 38.115C68.5413 37.9948 68.1869 37.8652 67.758 37.7261C67.3297 37.554 66.7937 37.3719 66.1502 37.18C66.6528 36.8229 67.0886 36.4979 67.4576 36.2051C67.8271 35.8791 68.1378 35.6103 68.3895 35.3986C68.675 35.1542 68.9102 34.9423 69.0952 34.7627C69.2802 34.5832 69.5159 34.3381 69.8023 34.0274C70.0383 33.7658 70.3413 33.4554 70.7113 33.0963C71.065 32.7203 71.4946 32.2544 72.0002 31.6984C72.0941 32.0645 72.2131 32.4226 72.357 32.7728C72.501 33.123 72.6372 33.4317 72.7658 33.6988C72.9271 33.9996 73.0883 34.3003 73.2496 34.6011C73.5083 35.0359 73.9304 35.6223 74.5161 36.3604C75.1185 37.0821 75.7945 37.8795 76.5438 38.7526C77.31 39.6094 78.1089 40.4998 78.9403 41.4238C79.7886 42.3316 80.588 43.1888 81.3383 43.9957C82.1055 44.7861 82.7995 45.4844 83.4203 46.0903C84.0247 46.6795 84.4746 47.0757 84.7699 47.2791C85.1142 47.5328 85.5002 47.7624 85.9281 47.9677C86.3065 48.1556 86.743 48.3362 87.2377 48.5093C87.716 48.6657 88.2285 48.7562 88.7751 48.781L83.1358 55.1359C83.1595 54.6556 83.141 54.2326 83.0802 53.8671C83.003 53.4847 82.9249 53.1686 82.8457 52.9188C82.7503 52.6522 82.6377 52.4184 82.5081 52.2176C82.3291 51.9995 82.0115 51.6218 81.5555 51.0846C81.181 50.6315 80.6352 50.0017 79.918 49.1954C79.2008 48.3891 78.2387 47.3305 77.0318 46.0196C76.7963 46.2481 76.5186 46.5341 76.1985 46.8773C75.879 47.1875 75.5844 47.4897 75.3148 47.784C74.9947 48.1273 74.6497 48.4785 74.2797 48.8376C73.926 49.2135 73.5555 49.6058 73.1681 50.0143C72.8644 50.3744 72.5186 50.7753 72.1308 51.217C71.7435 51.6256 71.3643 52.0426 70.9933 52.468C71.6452 53.207 72.2492 53.8293 72.8051 54.3349C73.3448 54.8236 73.8278 55.2204 74.2542 55.5251C74.7459 55.8971 75.1972 56.1939 75.6083 56.4155C76.003 56.6203 76.4062 56.817 76.8177 57.0054C77.1798 57.1766 77.575 57.3483 78.0034 57.5204C78.4486 57.6762 78.8611 57.7984 79.241 57.887C78.8888 58.1635 78.57 58.4239 78.2845 58.6683C77.9828 58.8958 77.7147 59.0907 77.4802 59.2529C77.2284 59.4646 76.985 59.6682 76.7501 59.8635C76.5314 60.0757 76.2626 60.3203 75.9435 60.5973C75.6581 60.8417 75.3136 61.1597 74.9099 61.5515C74.4899 61.9264 74.0108 62.3751 73.4726 62.8974C73.482 62.2677 73.4324 61.7117 73.3235 61.2294C73.2152 60.714 73.0807 60.2893 72.92 59.9554C72.7271 59.5547 72.525 59.2119 72.3138 58.927C72.1184 58.692 71.7269 58.2718 71.1393 57.6663C70.5685 57.0445 69.8992 56.355 69.1315 55.5976C68.3644 54.8071 67.5561 53.9912 66.7068 53.1497C65.8412 52.2915 65.0243 51.5002 64.2561 50.776C63.5048 50.0355 62.8511 49.4125 62.2951 48.9069C61.7397 48.3682 61.3882 48.0397 61.2408 47.9215C60.8629 47.7004 60.4185 47.4948 59.9075 47.3049C59.4786 47.1659 58.9585 47.0338 58.3471 46.9086C57.7194 46.7666 56.9992 46.7144 56.1865 46.752Z" fill="white"/>
<path d="M92.5863 38.3214C93.0572 37.8643 93.4455 37.3895 93.7512 36.8968C94.006 36.4862 94.195 36.0416 94.3182 35.5627C94.4418 35.0508 94.3664 34.5524 94.0919 34.0676C94.4936 33.8084 94.8366 33.5898 95.1211 33.4117C95.3892 33.2169 95.6236 33.0546 95.8245 32.925C96.0585 32.7959 96.2509 32.6745 96.4018 32.5607C96.569 32.4638 96.7614 32.3424 96.979 32.1964C97.1799 32.0669 97.4225 31.913 97.7069 31.735C97.9919 31.5238 98.3352 31.2886 98.7368 31.0294C98.4519 31.2406 98.2157 31.5188 98.0282 31.8641C97.8575 32.193 97.7034 32.5222 97.5659 32.8516C97.4111 33.2305 97.2975 33.6183 97.2253 34.0151C97.1719 34.2629 97.1422 34.5856 97.1362 34.9833C97.1471 35.3647 97.0657 35.8193 96.8921 36.3471C96.7184 36.8749 96.4026 37.4917 95.9445 38.1976C95.4869 38.8703 94.7877 39.6305 93.8468 40.4784C92.721 41.5057 91.6166 42.2019 90.5338 42.5669C89.4347 42.9151 88.405 43.0489 87.4449 42.9682C86.4684 42.8707 85.5773 42.6088 84.7716 42.1824C83.9658 41.7559 83.2933 41.2818 82.7542 40.7599C82.215 40.238 81.828 39.5195 81.593 38.6044C81.3581 37.6893 81.3067 36.694 81.4388 35.6187C81.5877 34.527 81.9526 33.4053 82.5333 32.2538C83.0978 31.0854 83.9014 29.9953 84.9442 28.9832C85.5497 28.3956 86.1781 27.9326 86.8296 27.5943C87.4816 27.2228 88.1321 26.9508 88.7811 26.7782C89.4469 26.5893 90.0865 26.4911 90.6998 26.4837C91.2969 26.4595 91.8516 26.4926 92.3641 26.5832C92.8929 26.6905 93.4043 26.8474 93.8985 27.0536C94.3269 27.2258 94.7708 27.4645 95.2303 27.7697C95.6899 28.0749 96.0987 28.4457 96.4568 28.882C95.2112 30.1562 94.2013 31.1853 93.4272 31.9693C92.6698 32.7369 92.0725 33.333 91.6352 33.7574L89.6422 35.6917C89.3394 35.9855 88.9524 36.3775 88.4809 36.8677C88.0095 37.3579 87.4369 37.9626 86.7632 38.6818C87.5002 39.2729 88.2164 39.5902 88.9119 39.6338C89.6079 39.6442 90.2391 39.5542 90.8055 39.3638C91.4386 39.1412 92.0322 38.7937 92.5863 38.3214ZM85.9085 35.9839C86.4794 35.4952 86.9495 35.0878 87.3191 34.7619C87.7054 34.4196 88.0245 34.1426 88.2762 33.9309C88.5449 33.7029 88.7548 33.5154 88.9062 33.3685L89.5369 32.7564C89.9574 32.3483 90.715 31.5641 91.8097 30.4036C91.041 29.7126 90.3344 29.3042 89.6899 29.1785C89.0622 29.0365 88.5156 29.0118 88.0501 29.1043C87.5179 29.2289 87.0336 29.4703 86.5973 29.8284C85.5204 30.9062 84.925 31.9249 84.8112 32.8846C84.7142 33.8279 85.08 34.861 85.9085 35.9839Z" fill="white"/>
<path d="M92.2678 23.0513C92.6037 22.758 92.8977 22.4889 93.15 22.2441C93.4028 21.9661 93.6135 21.7289 93.7822 21.5325C93.9845 21.3035 94.1616 21.099 94.3135 20.9189C94.5331 20.6405 94.753 20.3454 94.9731 20.0338C95.176 19.7716 95.379 19.4929 95.5823 19.1976C95.7862 18.8691 95.9734 18.5404 96.1441 18.2115C96.288 18.5617 96.4161 18.862 96.5284 19.1123C96.6407 19.3626 96.7453 19.5713 96.8422 19.7385C96.9387 19.9389 97.0359 20.0895 97.1338 20.1904C97.2312 20.3245 97.3616 20.4756 97.5248 20.6438C97.7855 20.946 98.2344 21.4085 98.8715 22.0313C99.0115 20.4257 99.1718 19.127 99.3524 18.1352C99.5498 17.1271 99.7108 16.3339 99.8355 15.7557C99.9948 15.0785 100.151 14.5836 100.305 14.271C100.83 13.5661 101.515 13.1786 102.361 13.1084C102.726 13.0807 103.14 13.12 103.603 13.2264C104.049 13.3159 104.56 13.5225 105.135 13.846C105.71 14.1695 106.342 14.6182 107.029 15.192C107.7 15.749 108.435 16.4893 109.233 17.4129C108.913 17.7893 108.626 18.1331 108.373 18.4442C108.136 18.739 107.934 18.9846 107.765 19.181C107.579 19.4268 107.393 19.6395 107.208 19.819L106.601 20.5558C106.398 20.818 106.136 21.1373 105.816 21.5137C105.496 21.857 105.116 22.2905 104.677 22.8143C104.829 21.5569 104.801 20.62 104.595 20.0037C104.389 19.3542 104.131 18.9028 103.82 18.6496C103.476 18.3626 103.055 18.232 102.558 18.2577C102.059 18.3829 101.649 18.6502 101.328 19.0598C101.041 19.4036 100.809 19.9056 100.634 20.566C100.458 21.2263 100.469 22.1298 100.668 23.2764C101.746 24.3202 102.645 25.179 103.364 25.8527C104.1 26.5101 104.697 27.0412 105.155 27.4458C105.695 27.9014 106.121 28.2559 106.432 28.5091C106.727 28.7124 107.089 28.8836 107.518 29.0226C107.865 29.1438 108.286 29.2413 108.782 29.315C109.278 29.3887 109.841 29.3972 110.472 29.3403C109.699 30.0249 109.094 30.6125 108.656 31.1032C108.386 31.3975 108.15 31.6592 107.948 31.8882C107.745 32.1503 107.525 32.4288 107.289 32.7236C107.086 32.9858 106.841 33.2888 106.554 33.6325C106.301 33.9768 106.013 34.3537 105.692 34.7633C105.647 34.4477 105.544 34.1229 105.383 33.789C105.239 33.472 105.086 33.1796 104.924 32.912C104.747 32.5944 104.544 32.2848 104.317 31.983C104.105 31.7312 103.77 31.3699 103.313 30.8989C102.873 30.4117 102.351 29.8901 101.746 29.334C101.141 28.7449 100.512 28.1471 99.8581 27.5406C99.1879 26.9173 98.55 26.3442 97.9446 25.8214C97.3391 25.2985 96.7987 24.8595 96.3234 24.5043C95.8485 24.116 95.4959 23.8703 95.2654 23.7674C94.9854 23.6472 94.6886 23.5433 94.375 23.4558C94.0945 23.3687 93.7807 23.2977 93.4334 23.2428C93.0698 23.1711 92.6813 23.1072 92.2678 23.0513Z" fill="white"/>
<path d="M119.227 12.4657C119.698 12.0086 120.087 11.5338 120.392 11.0411C120.647 10.6306 120.836 10.1859 120.959 9.70704C121.083 9.19508 121.008 8.69671 120.733 8.21193C121.135 7.95275 121.478 7.73412 121.762 7.55606C122.03 7.36117 122.265 7.19893 122.466 7.06934C122.7 6.94024 122.892 6.81881 123.043 6.70505C123.21 6.6081 123.402 6.48667 123.62 6.34075C123.821 6.21116 124.064 6.05733 124.348 5.87927C124.633 5.66806 124.976 5.43286 125.378 5.17368C125.093 5.38489 124.857 5.66312 124.669 6.00838C124.499 6.33732 124.345 6.66651 124.207 6.99595C124.052 7.37485 123.939 7.76265 123.866 8.15937C123.813 8.40719 123.783 8.72995 123.777 9.12765C123.788 9.50903 123.707 9.96362 123.533 10.4914C123.36 11.0192 123.044 11.636 122.586 12.3419C122.128 13.0146 121.429 13.7749 120.488 14.6227C119.362 15.65 118.258 16.3462 117.175 16.7112C116.076 17.0594 115.046 17.1932 114.086 17.1125C113.11 17.015 112.218 16.7531 111.413 16.3267C110.607 15.9003 109.934 15.4261 109.395 14.9042C108.856 14.3823 108.469 13.6638 108.234 12.7487C107.999 11.8336 107.948 10.8383 108.08 9.76297C108.229 8.67127 108.594 7.54965 109.174 6.39811C109.739 5.22975 110.543 4.13956 111.585 3.12753C112.191 2.5399 112.819 2.07693 113.471 1.73861C114.123 1.36714 114.773 1.09511 115.422 0.922495C116.088 0.73356 116.728 0.635394 117.341 0.627996C117.938 0.60378 118.493 0.636942 119.005 0.727482C119.534 0.834841 120.045 0.991666 120.54 1.19795C120.968 1.37011 121.412 1.6088 121.871 1.91402C122.331 2.21924 122.74 2.59 123.098 3.02629C121.852 4.30048 120.842 5.32958 120.068 6.11358C119.311 6.88126 118.714 7.4773 118.276 7.9017L116.283 9.83598C115.981 10.1298 115.593 10.5218 115.122 11.012C114.651 11.5022 114.078 12.1069 113.404 12.8261C114.141 13.4172 114.858 13.7346 115.553 13.7781C116.249 13.7885 116.88 13.6985 117.447 13.5081C118.08 13.2855 118.673 12.938 119.227 12.4657ZM112.55 10.1282C113.12 9.63948 113.591 9.23215 113.96 8.90619C114.347 8.5639 114.666 8.2869 114.917 8.0752C115.186 7.84717 115.396 7.65971 115.547 7.5128L116.178 6.90068C116.599 6.49261 117.356 5.70836 118.451 4.54794C117.682 3.85687 116.976 3.44851 116.331 3.32284C115.703 3.18086 115.157 3.1561 114.691 3.24859C114.159 3.37322 113.675 3.6146 113.238 3.97271C112.161 5.05053 111.566 6.06925 111.452 7.02888C111.355 7.97218 111.721 9.00528 112.55 10.1282Z" fill="white"/>
</svg>
