<svg width="284" height="307" viewBox="0 0 284 307" fill="none" xmlns="http://www.w3.org/2000/svg">
<path d="M79.9841 154.602C79.6401 140.732 78.377 126.882 76.1975 113.178C87.1203 123.547 97.9254 134.038 108.827 144.428C129.313 111.13 149.669 77.7635 170.161 44.4725C200.259 73.3202 230.35 102.175 260.42 131.066C228.042 152.898 195.569 174.598 163.176 196.416C174.016 206.899 184.939 217.282 195.779 227.751C162.641 224.187 128.581 224.631 96.2514 233.442C83.7145 236.991 71.4103 241.871 60.5858 249.211C76.8616 220.632 80.6333 186.945 79.9841 154.602Z" fill="#00BAF4"/>
<path d="M183.565 6.04017C184.155 6.61039 184.588 7.22468 184.864 7.88305C185.173 8.54086 185.416 9.18321 185.592 9.8101C185.786 10.4533 185.97 11.0552 186.145 11.6158C186.336 12.1596 186.626 12.6188 187.013 12.9935C187.333 13.2699 187.719 13.5618 188.172 13.8691C188.574 14.1276 189.059 14.4012 189.628 14.69C190.229 14.9782 190.946 15.248 191.779 15.4992C190.702 15.5007 189.807 15.5157 189.095 15.5443C188.416 15.5723 187.87 15.6146 187.456 15.6713C186.976 15.729 186.613 15.7849 186.365 15.8388C186.085 15.9264 185.664 16.0577 185.104 16.2329C184.592 16.3907 183.9 16.6012 183.026 16.8645C182.168 17.111 181.055 17.4529 179.687 17.8903C180.811 16.7277 181.564 15.7122 181.948 14.8439C182.348 13.9918 182.576 13.267 182.632 12.6693C182.687 11.9723 182.561 11.3777 182.254 10.8856C181.932 10.4766 181.496 10.1856 180.947 10.0125C180.413 9.82253 179.798 9.71684 179.101 9.69539C178.422 9.69024 177.685 9.76062 176.892 9.90655C176.132 10.0519 175.373 10.247 174.615 10.4918C173.873 10.7529 173.166 11.0631 172.492 11.4225C171.835 11.7651 171.269 12.1309 170.795 12.5201C170.37 12.8588 169.921 13.3055 169.45 13.8604C168.995 14.3985 168.566 14.9941 168.162 15.6473C167.775 16.2837 167.43 16.9442 167.127 17.6289C166.823 18.3136 166.611 18.9884 166.489 19.6535C166.401 20.318 166.412 20.9476 166.521 21.5425C166.647 22.1205 166.945 22.6211 167.416 23.0441C167.954 23.4992 168.598 23.8281 169.347 24.031C169.98 24.2193 170.736 24.2978 171.614 24.2664C172.508 24.2183 173.531 23.9193 174.682 23.3696L177.762 27.6688C175.413 27.9403 173.407 27.9077 171.744 27.571C170.098 27.2506 168.74 26.8341 167.67 26.3217C166.434 25.7126 165.402 24.9924 164.576 24.1609C163.629 23.0166 162.944 21.7352 162.522 20.3168C162.101 18.8985 161.911 17.4927 161.954 16.0997C162.03 14.7061 162.315 13.3836 162.807 12.1322C163.3 10.8808 163.987 9.84987 164.869 9.03945C165.456 8.49918 166.218 7.94769 167.153 7.385C168.105 6.80545 169.14 6.27423 170.259 5.79132C171.395 5.32471 172.582 4.94012 173.82 4.63754C175.058 4.33496 176.265 4.1655 177.441 4.12917C178.634 4.07598 179.755 4.19804 180.804 4.49534C181.886 4.79208 182.807 5.30702 183.565 6.04017Z" fill="white"/>
<path d="M173.464 33.7826C173.877 33.6928 174.24 33.5873 174.553 33.466C174.866 33.3447 175.129 33.2408 175.343 33.1544C175.59 33.0342 175.803 32.9146 175.984 32.7955C176.098 32.7107 176.392 32.424 176.864 31.9354C177.337 31.4468 177.915 30.8155 178.598 30.0416C179.298 29.2839 180.079 28.4255 180.941 27.4662C181.821 26.5232 182.699 25.5471 183.577 24.5378C184.472 23.5449 185.334 22.569 186.164 21.6103C187.01 20.6679 187.766 19.8181 188.433 19.061C189.116 18.2871 189.669 17.648 190.092 17.1436C190.514 16.6393 190.749 16.3452 190.798 16.2615C190.862 16.1279 190.901 15.9698 190.914 15.7872C190.941 15.4221 190.842 14.9514 190.617 14.375C191.688 14.9869 192.516 15.4454 193.101 15.7505C193.436 15.9437 193.737 16.1044 194.005 16.2325C194.255 16.3444 194.506 16.4562 194.756 16.568C194.973 16.6472 195.215 16.7343 195.481 16.8293C195.765 16.9074 196.039 16.9608 196.305 16.9895C195.748 17.3967 195.224 17.8033 194.734 18.2093C194.243 18.6153 193.794 18.9958 193.386 19.3508C192.928 19.7563 192.504 20.1612 192.113 20.5656C191.231 21.3097 190.308 22.1622 189.347 23.1232C188.418 24.0836 187.481 25.0689 186.537 26.0793C185.593 27.0897 184.69 28.0911 183.828 29.0835C182.966 30.0759 182.186 30.9841 181.487 31.808C180.821 32.6314 180.253 33.3371 179.782 33.9251C179.344 34.5126 179.069 34.8985 178.956 35.0827C178.779 35.4006 178.61 35.7101 178.45 36.0111C178.321 36.2785 178.194 36.5624 178.066 36.8629C177.922 37.1802 177.844 37.4633 177.832 37.7122L175.38 35.3417C175.161 35.1299 174.942 34.9346 174.724 34.756C174.522 34.5936 174.312 34.4231 174.094 34.2445C173.875 34.0658 173.665 33.9119 173.464 33.7826Z" fill="white"/>
<path d="M190.203 26.7387L194.804 31.2859C193.541 32.053 192.492 32.7337 191.656 33.3278C190.838 33.9383 190.175 34.4715 189.669 34.9276C189.064 35.4184 188.591 35.8739 188.25 36.294C187.959 36.6967 187.676 37.1572 187.403 37.6757C187.178 38.1104 186.955 38.6445 186.734 39.2781C186.513 39.9117 186.359 40.6104 186.272 41.3744C186.135 41.1115 185.965 40.8491 185.761 40.5873C185.558 40.3255 185.364 40.0885 185.178 39.8761C184.958 39.6312 184.722 39.4031 184.47 39.1918C184.218 38.9806 183.932 38.7534 183.613 38.5101C183.345 38.3157 183.018 38.0808 182.632 37.8056C182.246 37.5303 181.827 37.2555 181.375 36.9813C182.361 36.4675 183.19 35.9978 183.862 35.5721C184.552 35.1627 185.109 34.8053 185.535 34.4998C186.026 34.1269 186.41 33.8138 186.688 33.5605C187.013 33.2235 187.38 32.8444 187.787 32.4232C188.211 31.9851 188.618 31.5639 189.009 31.1595C189.4 30.7551 189.734 30.3932 190.01 30.0736C190.303 29.7372 190.465 29.5024 190.496 29.3693L190.487 28.8722C190.468 28.6902 190.43 28.4256 190.375 28.0785C190.352 27.7308 190.295 27.2842 190.203 26.7387ZM195.761 24.5818C196.294 24.7386 196.697 25.0301 196.969 25.4565C197.258 25.8992 197.39 26.3362 197.364 26.7676C197.338 27.199 197.137 27.5422 196.76 27.7971C196.4 28.0684 195.829 28.1194 195.047 27.9502C194.281 27.7642 193.754 27.4498 193.465 27.0072C193.175 26.5645 193.085 26.1351 193.194 25.7188C193.303 25.3026 193.579 24.9665 194.023 24.7104C194.482 24.4375 195.062 24.3946 195.761 24.5818Z" fill="white"/>
<path d="M208.274 48.7121C208.105 48.4829 207.877 48.2133 207.59 47.9032C207.319 47.6094 207.05 47.3321 206.78 47.0714C206.477 46.7782 206.148 46.4771 205.795 46.1681C205.425 45.8428 205.055 45.5175 204.685 45.1922C204.365 44.9158 203.995 44.6071 203.575 44.2661C203.188 43.9245 202.802 43.5995 202.415 43.2911C202.615 43.354 202.823 43.3754 203.038 43.3552C203.27 43.3513 203.485 43.3311 203.683 43.2946C203.898 43.2413 204.112 43.1714 204.326 43.0849C204.655 42.9136 204.94 42.6022 205.181 42.1506C205.438 41.6822 205.579 41.166 205.602 40.6021C205.643 40.0544 205.542 39.5008 205.301 38.9413C205.092 38.3813 204.704 37.9237 204.134 37.5686C203.515 37.1978 202.889 36.9348 202.256 36.7797C201.64 36.6409 200.994 36.6517 200.317 36.8123C199.674 36.9723 198.999 37.2985 198.295 37.791C197.624 38.283 196.914 38.9662 196.166 39.8407C195.24 40.9336 194.618 41.9137 194.301 42.7809C193.984 43.6482 193.873 44.4208 193.967 45.0988C194.062 45.7768 194.304 46.3694 194.693 46.8767C195.116 47.3834 195.58 47.8315 196.083 48.2208C196.469 48.463 196.902 48.6049 197.383 48.6465C197.782 48.673 198.245 48.5989 198.772 48.4243C199.3 48.2496 199.856 47.8425 200.442 47.2028L203.648 50.0579C202.333 50.7098 201.137 51.0863 200.062 51.1872C199.002 51.2713 198.082 51.2453 197.301 51.1093C196.386 50.9423 195.586 50.6574 194.899 50.2546C194.094 49.7045 193.431 49.1604 192.908 48.6222C192.401 48.0672 191.994 47.5105 191.686 46.9521C191.379 46.3937 191.137 45.8342 190.962 45.2736C190.787 44.713 190.645 44.1518 190.536 43.5901C190.463 43.2267 190.464 42.7377 190.536 42.1232C190.609 41.5087 190.763 40.8431 191 40.1264C191.253 39.3928 191.597 38.6494 192.031 37.8963C192.466 37.1431 193.01 36.4626 193.663 35.855C194.332 35.2304 195.119 34.72 196.024 34.3235C196.929 33.9271 197.97 33.7107 199.146 33.6744C200.919 33.628 202.441 33.9588 203.712 34.6668C205.017 35.3741 206.059 36.2351 206.839 37.2497C207.635 38.2474 208.191 39.2906 208.507 40.3792C208.824 41.4679 208.897 42.3865 208.728 43.1353C208.558 43.884 208.418 44.4499 208.309 44.833C208.232 45.2155 208.163 45.5067 208.1 45.7067C208.07 45.9061 208.048 46.0639 208.033 46.1802C208.052 46.2959 208.071 46.4613 208.091 46.6765C208.094 46.8422 208.105 47.0326 208.126 47.2477C208.145 47.4297 208.165 47.6449 208.186 47.8932C208.207 48.1414 208.236 48.4144 208.274 48.7121Z" fill="white"/>
<path d="M216.587 38.8512C216.691 39.1146 216.853 39.3854 217.073 39.6635C217.31 39.9578 217.546 40.2191 217.782 40.4471C218.069 40.7241 218.372 41.0008 218.691 41.2772C219.011 41.5536 219.414 41.8783 219.901 42.2514C220.288 42.5598 220.766 42.9413 221.337 43.3958C221.909 43.8503 222.555 44.345 223.277 44.8799C222.927 44.7697 222.603 44.7006 222.304 44.6724C222.005 44.6443 221.731 44.6406 221.483 44.6614C221.202 44.6827 220.946 44.7284 220.715 44.7986C220.401 44.8867 219.899 45.0858 219.208 45.3957C218.55 45.7051 217.827 46.0654 217.038 46.4764C216.266 46.9038 215.503 47.3558 214.749 47.8326C214.011 48.3257 213.422 48.7831 212.982 49.2049C212.606 49.5593 212.182 49.9642 211.709 50.4197C211.301 50.8078 210.804 51.2885 210.217 51.8619C209.63 52.4354 208.961 53.093 208.211 53.8349C210.272 54.1318 211.883 54.3368 213.045 54.4499C214.223 54.5461 215.103 54.5976 215.683 54.6045C216.346 54.6265 216.777 54.6026 216.975 54.533C217.056 54.4156 217.119 54.2654 217.166 54.0823C217.18 53.8997 217.176 53.6677 217.154 53.3863C217.133 53.1049 217.052 52.7333 216.912 52.2716C217.301 52.7457 217.648 53.146 217.951 53.4724C218.272 53.8151 218.542 54.1089 218.762 54.3538C219.015 54.6313 219.251 54.8594 219.469 55.0381C219.689 55.2499 219.966 55.5021 220.303 55.7948C220.875 56.3156 221.759 57.1212 222.954 58.2117C221.255 57.7098 219.873 57.3518 218.809 57.1377C218.21 57.0151 217.669 56.9165 217.188 56.8417C216.689 56.7838 216.175 56.7261 215.643 56.6687C215.178 56.6102 214.638 56.5447 214.024 56.4722C213.426 56.4159 212.812 56.3765 212.182 56.3539C211.843 57.8845 211.591 59.1734 211.426 60.2204C211.279 61.2836 211.169 62.1557 211.097 62.8365C211.011 63.6335 210.973 64.2972 210.982 64.8274C211.007 65.3408 211.084 65.9694 211.212 66.7131C211.306 67.358 211.46 68.1593 211.675 69.117C211.923 70.0742 212.241 71.2126 212.628 72.5321C212.271 72.0243 211.907 71.558 211.535 71.1333C211.147 70.7254 210.802 70.3914 210.499 70.1313C210.129 69.806 209.776 69.5302 209.441 69.3037C209.072 69.0779 208.654 68.8363 208.186 68.579C207.784 68.3536 207.299 68.0966 206.731 67.8078C206.163 67.5521 205.512 67.2979 204.778 67.045C205.327 67.1186 205.782 67.1193 206.146 67.0469C206.51 67.0076 206.791 66.9532 206.989 66.8835C207.219 66.7802 207.383 66.6614 207.48 66.5272C207.558 66.2773 207.699 65.7445 207.9 64.9289C208.038 64.2139 208.235 63.1663 208.494 61.7862C208.753 60.4062 209.069 58.4947 209.442 56.0519C209.375 56.0199 209.242 55.989 209.043 55.9592C208.86 55.9456 208.594 55.917 208.246 55.8731C207.913 55.8124 207.448 55.7539 206.85 55.6976L203.256 60.7803C203.039 60.7011 202.814 60.5971 202.579 60.4684C202.362 60.3561 202.161 60.2434 201.977 60.1305C201.743 60.0018 201.525 59.8563 201.323 59.6939C201.122 59.5316 200.87 59.3535 200.568 59.1596C200.317 58.9815 200.015 58.7711 199.663 58.5284C199.294 58.3026 198.876 58.0444 198.407 57.7539C198.772 57.8141 199.12 57.8082 199.451 57.7364C199.765 57.6814 200.045 57.6104 200.292 57.5233C200.556 57.4195 200.819 57.299 201.082 57.162C201.279 57.0261 201.736 56.6206 202.454 55.9455C203.189 55.2868 204.045 54.485 205.024 53.5404C206.019 52.5789 207.071 51.5419 208.179 50.4293C209.304 49.333 210.347 48.2878 211.309 47.2937C212.286 46.2828 213.125 45.3985 213.825 44.6409C214.541 43.8664 214.98 43.3452 215.141 43.0772C215.318 42.7262 215.494 42.342 215.669 41.9247C215.829 41.5574 215.979 41.1156 216.119 40.5994C216.293 40.0827 216.449 39.4999 216.587 38.8512Z" fill="white"/>
<path d="M235.501 57.6777C236.025 58.3153 236.473 58.8465 236.845 59.2712C237.233 59.679 237.537 60.0054 237.757 60.2504C238.027 60.5442 238.246 60.7726 238.415 60.9355C238.701 61.2124 239.038 61.5217 239.425 61.8633C239.761 62.156 240.156 62.4891 240.61 62.8627C241.097 63.2358 241.642 63.6162 242.245 64.0038C241.765 64.0285 241.335 64.0854 240.955 64.1747C240.592 64.2471 240.278 64.3352 240.015 64.4391C239.718 64.5435 239.455 64.6474 239.225 64.7507C238.945 64.9046 238.544 65.1683 238.02 65.5417C237.561 65.8478 236.938 66.3058 236.153 66.9157C235.385 67.5419 234.379 68.3627 233.136 69.378C233.693 69.9488 234.182 70.4379 234.603 70.8452C235.04 71.2356 235.402 71.5693 235.689 71.8463L236.523 72.6527C236.775 72.864 237.061 73.1078 237.381 73.3842C237.902 73.8561 238.718 74.5469 239.827 75.4564C240.661 74.7629 241.346 74.1381 241.884 73.582C242.455 73.0255 242.911 72.5371 243.252 72.117C243.642 71.6464 243.949 71.2268 244.175 70.8584C244.288 70.641 244.407 70.3655 244.534 70.0319C244.646 69.7482 244.764 69.3899 244.889 68.9568C245.048 68.5232 245.213 67.9817 245.384 67.3324C245.757 67.8234 246.096 68.2487 246.4 68.6082C246.738 68.9672 247.016 69.2692 247.236 69.5141C247.489 69.7916 247.708 70.02 247.894 70.1992C248.079 70.3784 248.331 70.6062 248.651 70.8826C248.92 71.1102 249.24 71.4031 249.611 71.7616C249.998 72.1031 250.477 72.5178 251.049 73.0054C250.686 73.111 250.332 73.2412 249.986 73.3962C249.641 73.5512 249.336 73.6972 249.074 73.8342C248.778 74.0049 248.483 74.1756 248.187 74.3463C247.761 74.6187 247.188 75.0593 246.469 75.6681C245.767 76.2932 244.991 76.9941 244.142 77.7708C243.31 78.5638 242.446 79.3905 241.549 80.2509C240.668 81.1276 239.837 81.9537 239.054 82.7293C238.288 83.5212 237.613 84.237 237.027 84.8767C236.457 85.4996 236.075 85.9618 235.881 86.2634C235.639 86.6156 235.422 87.0088 235.23 87.4429C235.054 87.8271 234.887 88.2692 234.73 88.7691C234.589 89.2521 234.515 89.7672 234.507 90.3143L227.977 84.8796C228.457 84.8881 228.88 84.8562 229.243 84.7838C229.623 84.6945 229.936 84.6064 230.183 84.5193C230.447 84.4155 230.677 84.2956 230.873 84.1597C231.086 83.9738 231.453 83.6444 231.976 83.1715C232.417 82.7829 233.029 82.2173 233.812 81.4748C234.595 80.7324 235.623 79.7372 236.894 78.4892C236.659 78.2612 236.364 77.9926 236.011 77.6836C235.691 77.3741 235.379 77.0892 235.076 76.8291C234.723 76.5201 234.361 76.1864 233.991 75.828C233.604 75.4864 233.2 75.1286 232.779 74.7544C232.41 74.4622 231.998 74.1294 231.544 73.7558C231.123 73.3816 230.695 73.0159 230.258 72.6586C229.54 73.3336 228.937 73.957 228.449 74.5288C227.978 75.0837 227.597 75.5791 227.306 76.0149C226.949 76.5181 226.667 76.9787 226.459 77.3966C226.266 77.7976 226.083 78.2068 225.907 78.6241C225.748 78.9914 225.589 79.3919 225.43 79.8255C225.289 80.2754 225.18 80.6917 225.103 81.0742C224.816 80.7309 224.545 80.4205 224.292 80.143C224.055 79.8486 223.852 79.5869 223.682 79.3577C223.462 79.1127 223.251 78.8759 223.049 78.6473C222.83 78.4355 222.577 78.1745 222.29 77.8644C222.036 77.5869 221.707 77.2526 221.303 76.8616C220.915 76.4538 220.451 75.9892 219.912 75.4678C220.542 75.4572 221.096 75.3899 221.575 75.2658C222.086 75.1412 222.507 74.9933 222.835 74.822C223.229 74.6165 223.566 74.4036 223.844 74.1835C224.072 73.9807 224.48 73.5761 225.067 72.9695C225.67 72.3793 226.338 71.6885 227.07 70.8971C227.836 70.1052 228.626 69.2715 229.44 68.3959C230.27 67.5035 231.035 66.6619 231.735 65.8711C232.451 65.0966 233.053 64.4235 233.541 63.8517C234.061 63.2794 234.379 62.9177 234.492 62.7666C234.701 62.3819 234.892 61.9311 235.066 61.4144C235.191 60.9813 235.307 60.4573 235.413 59.8422C235.535 59.2103 235.564 58.4888 235.501 57.6777Z" fill="white"/>
<path d="M245.083 93.7914C245.555 94.2476 246.041 94.6207 246.544 94.9106C246.962 95.1522 247.413 95.3269 247.895 95.4349C248.411 95.5422 248.906 95.451 249.382 95.1612C249.654 95.5545 249.883 95.8904 250.07 96.169C250.274 96.4308 250.443 96.66 250.579 96.8567C250.716 97.0864 250.843 97.2749 250.962 97.4221C251.064 97.5861 251.191 97.7746 251.344 97.9875C251.48 98.1841 251.641 98.4217 251.828 98.7004C252.049 98.9784 252.295 99.3141 252.566 99.7073C252.346 99.4293 252.061 99.202 251.71 99.0256C251.375 98.8654 251.041 98.7219 250.708 98.5949C250.324 98.4522 249.933 98.351 249.534 98.2914C249.285 98.2458 248.961 98.2264 248.564 98.2331C248.183 98.2561 247.726 98.1892 247.193 98.0324C246.66 97.8756 246.033 97.5795 245.313 97.144C244.626 96.708 243.844 96.0333 242.967 95.1198C241.904 94.0272 241.173 92.9455 240.774 91.8748C240.391 90.7873 240.225 89.7624 240.275 88.8002C240.341 87.8212 240.575 86.9222 240.976 86.1033C241.376 85.2844 241.829 84.5972 242.333 84.0417C242.838 83.4863 243.544 83.0766 244.451 82.8127C245.358 82.5488 246.351 82.4659 247.43 82.5638C248.526 82.678 249.659 83.007 250.828 83.5509C252.014 84.078 253.129 84.8466 254.174 85.8567C254.78 86.4432 255.263 87.0566 255.622 87.697C256.014 88.3369 256.306 88.9784 256.499 89.6216C256.709 90.2811 256.828 90.9172 256.855 91.53C256.898 92.126 256.882 92.6816 256.808 93.1966C256.717 93.7286 256.577 94.2447 256.386 94.7452C256.228 95.1788 256.004 95.6301 255.713 96.0991C255.423 96.5681 255.065 96.9885 254.64 97.3603C253.327 96.1558 252.267 95.1791 251.458 94.4302C250.667 93.6976 250.052 93.1195 249.614 92.6959L247.618 90.7653C247.314 90.4721 246.91 90.0976 246.405 89.642C245.9 89.1864 245.278 88.6333 244.538 87.9827C243.97 88.7381 243.676 89.4641 243.654 90.1606C243.666 90.8566 243.776 91.4846 243.984 92.0446C244.227 92.6704 244.593 93.2527 245.083 93.7914ZM247.207 87.0428C247.714 87.5978 248.136 88.0549 248.473 88.4138C248.828 88.7891 249.115 89.0992 249.334 89.3442C249.571 89.6054 249.765 89.8093 249.916 89.9559L250.548 90.5669C250.969 90.9742 251.777 91.7065 252.972 92.7638C253.638 91.9736 254.024 91.2544 254.129 90.6062C254.251 89.9743 254.258 89.4272 254.151 88.9649C254.01 88.4368 253.753 87.9605 253.381 87.5358C252.27 86.4936 251.233 85.9309 250.27 85.8477C249.324 85.7807 248.303 86.1791 247.207 87.0428Z" fill="white"/>
<path d="M260.335 92.9882C260.639 93.3146 260.917 93.6 261.17 93.8444C261.456 94.0882 261.699 94.2913 261.901 94.4537C262.136 94.6486 262.346 94.8191 262.531 94.9652C262.817 95.1759 263.118 95.3863 263.437 95.5964C263.705 95.7908 263.99 95.9849 264.292 96.1787C264.627 96.372 264.961 96.5487 265.295 96.7089C264.95 96.8638 264.654 97.0014 264.407 97.1216C264.161 97.2418 263.955 97.3529 263.791 97.4551C263.594 97.5579 263.447 97.6598 263.349 97.7609C263.218 97.8626 263.071 97.9976 262.908 98.1661C262.614 98.4363 262.166 98.8996 261.564 99.5562C263.173 99.6452 264.477 99.7642 265.474 99.9132C266.487 100.078 267.285 100.214 267.867 100.32C268.549 100.458 269.049 100.599 269.366 100.743C270.087 101.245 270.496 101.917 270.593 102.761C270.633 103.125 270.607 103.54 270.515 104.005C270.44 104.454 270.249 104.971 269.944 105.556C269.639 106.142 269.211 106.787 268.659 107.493C268.124 108.181 267.407 108.939 266.509 109.766C266.123 109.458 265.77 109.182 265.451 108.939C265.149 108.712 264.897 108.517 264.696 108.355C264.444 108.177 264.225 107.998 264.04 107.819L263.284 107.235C263.016 107.04 262.688 106.789 262.302 106.48C261.949 106.171 261.503 105.806 260.966 105.384C262.227 105.496 263.163 105.438 263.773 105.213C264.415 104.986 264.858 104.714 265.101 104.395C265.377 104.042 265.494 103.617 265.453 103.121C265.312 102.626 265.032 102.225 264.612 101.917C264.259 101.641 263.75 101.426 263.085 101.271C262.419 101.116 261.516 101.156 260.377 101.391C259.368 102.502 258.538 103.428 257.887 104.168C257.254 104.924 256.742 105.538 256.352 106.009C255.914 106.563 255.573 107 255.33 107.319C255.136 107.62 254.976 107.988 254.851 108.421C254.741 108.771 254.657 109.195 254.599 109.693C254.541 110.191 254.55 110.754 254.627 111.383C253.918 110.633 253.312 110.046 252.808 109.624C252.505 109.363 252.236 109.136 252 108.941C251.732 108.747 251.447 108.536 251.145 108.309C250.876 108.114 250.565 107.879 250.213 107.604C249.861 107.361 249.475 107.086 249.055 106.778C249.369 106.723 249.691 106.609 250.019 106.438C250.331 106.284 250.619 106.121 250.881 105.951C251.193 105.764 251.496 105.551 251.79 105.314C252.035 105.095 252.386 104.749 252.842 104.277C253.315 103.822 253.82 103.283 254.356 102.661C254.926 102.038 255.504 101.39 256.089 100.717C256.691 100.028 257.243 99.3718 257.747 98.7501C258.25 98.1284 258.672 97.5743 259.012 97.0879C259.385 96.601 259.619 96.2407 259.714 96.007C259.826 95.7234 259.92 95.4234 259.998 95.1072C260.076 94.8241 260.137 94.5082 260.181 94.1593C260.241 93.7937 260.292 93.4033 260.335 92.9882Z" fill="white"/>
<path d="M271.771 119.598C272.243 120.054 272.73 120.427 273.232 120.717C273.651 120.959 274.101 121.134 274.584 121.242C275.099 121.349 275.595 121.258 276.071 120.968C276.343 121.361 276.572 121.697 276.759 121.976C276.962 122.237 277.132 122.467 277.268 122.663C277.404 122.893 277.532 123.082 277.65 123.229C277.752 123.393 277.88 123.581 278.033 123.794C278.169 123.991 278.33 124.228 278.517 124.507C278.737 124.785 278.983 125.121 279.255 125.514C279.035 125.236 278.749 125.009 278.398 124.832C278.064 124.672 277.73 124.529 277.396 124.402C277.013 124.259 276.622 124.158 276.223 124.098C275.973 124.052 275.65 124.033 275.252 124.04C274.871 124.063 274.414 123.996 273.881 123.839C273.348 123.682 272.722 123.386 272.002 122.951C271.315 122.515 270.533 121.84 269.656 120.926C268.593 119.834 267.862 118.752 267.463 117.681C267.08 116.594 266.913 115.569 266.964 114.607C267.03 113.628 267.264 112.729 267.664 111.91C268.065 111.091 268.517 110.404 269.022 109.848C269.526 109.293 270.232 108.883 271.139 108.619C272.047 108.356 273.04 108.273 274.119 108.37C275.215 108.485 276.347 108.814 277.517 109.358C278.702 109.885 279.818 110.653 280.862 111.663C281.469 112.25 281.951 112.863 282.31 113.504C282.702 114.144 282.995 114.785 283.188 115.428C283.398 116.088 283.516 116.724 283.543 117.337C283.586 117.933 283.571 118.488 283.497 119.003C283.406 119.535 283.266 120.051 283.075 120.552C282.917 120.985 282.692 121.437 282.402 121.906C282.111 122.375 281.754 122.795 281.329 123.167C280.016 121.962 278.955 120.986 278.147 120.237C277.356 119.504 276.741 118.926 276.303 118.503L274.306 116.572C274.003 116.279 273.599 115.904 273.094 115.449C272.589 114.993 271.966 114.44 271.226 113.789C270.659 114.545 270.364 115.271 270.343 115.967C270.355 116.663 270.465 117.291 270.673 117.851C270.916 118.477 271.282 119.059 271.771 119.598ZM273.896 112.849C274.402 113.405 274.824 113.862 275.162 114.22C275.516 114.596 275.803 114.906 276.023 115.151C276.259 115.412 276.453 115.616 276.605 115.763L277.237 116.374C277.658 116.781 278.466 117.513 279.66 118.57C280.327 117.78 280.712 117.061 280.818 116.413C280.94 115.781 280.947 115.234 280.84 114.772C280.698 114.244 280.442 113.767 280.07 113.342C278.958 112.3 277.921 111.738 276.959 111.654C276.013 111.587 274.992 111.986 273.896 112.849Z" fill="white"/>
</svg>
